<?xml version="1.0" encoding="UTF-8" standalone="no"?>
<svg xmlns="http://www.w3.org/2000/svg" height="163px" width="119px" version="1.1" xmlns:xlink="http://www.w3.org/1999/xlink" viewBox="0 0 119 163"><!-- Generator: Sketch 3.8.3 (29802) - http://www.bohemiancoding.com/sketch -->
 <title>noun_158317_cc</title>
 <desc>Created with Sketch.</desc>
 <g id="Page-1" fill-rule="evenodd" fill="none">
  <g id="Sidebar-Multi-Line" transform="translate(-837 -49)">
   <g id="noun_158317_cc" transform="translate(837 49)">
    <g id="Group">
     <path id="Shape" stroke="#AED5DA" stroke-width="2" d="m30.82 67.327s26.114 19.108 59.928 0"/>
     <path id="Shape" fill="#AED5DA" d="m118.34 71.528l-15.97-56.146c-2.533-8.9118-14.08-15.382-27.455-15.382h-31.623c-13.806 0-25.418 6.7209-27.611 15.981-2.815 11.898-8.4947 34.894-14.908 55.25-2.4935 7.913 2.6519 15.96 12.807 20.027 3.658 1.466 8.1 3.029 13.175 4.434l-17.605 63.748c-0.4246 1.54 0.636 3.1 2.371 3.47 0.259 0.06 0.518 0.09 0.772 0.09 1.455 0 2.776-0.88 3.138-2.19l7.112-25.76 36.957-8.74 36.955 8.74 7.115 25.75c0.36 1.32 1.68 2.19 3.13 2.19 0.26 0 0.52-0.02 0.78-0.08 1.73-0.38 2.79-1.93 2.37-3.47l-17.633-63.846c5.266-1.475 9.853-3.125 13.623-4.667 9.65-3.954 14.67-11.748 12.5-19.399zm-95.209 61.412l3.949-14.3 28.238 6.68-32.187 7.62zm40.553-7.62l28.238-6.68 3.949 14.29-32.187-7.61zm27.725-8.54l-31.909 7.55-31.909-7.55 5.393-19.527c7.737 1.727 16.618 2.947 26.279 2.947 9.853 0 18.876-1.253 26.731-3.029l5.415 19.609zm-32.146-18.499c-18.933 0-34.811-4.769-44.797-8.768-9.1442-3.663-13.811-10.803-11.617-17.769 6.4304-20.409 12.123-43.452 14.943-55.371 1.983-8.3776 12.707-14.459 25.5-14.459l31.623-0.0003c12.403 0 23.071 5.8616 25.365 13.937l15.97 56.146c1.91 6.728-2.64 13.637-11.31 17.19-10.127 4.149-26.27 9.094-45.677 9.094z"/>
    </g>
   </g>
  </g>
 </g>
</svg>
